<svg xmlns="http://www.w3.org/2000/svg" width="14" height="20" viewBox="0 0 14 20" fill="none">
  <path d="M2 19C1.45 19 0.979167 18.8042 0.5875 18.4125C0.195833 18.0208 0 17.55 0 17V6C0 5.45 0.195833 4.97917 0.5875 4.5875C0.979167 4.19583 1.45 4 2 4H4V1.5C4 1.08333 4.14583 0.729167 4.4375 0.4375C4.72917 0.145833 5.08333 0 5.5 0H8.5C8.91667 0 9.27083 0.145833 9.5625 0.4375C9.85417 0.729167 10 1.08333 10 1.5V4H12C12.55 4 13.0208 4.19583 13.4125 4.5875C13.8042 4.97917 14 5.45 14 6V17C14 17.55 13.8042 18.0208 13.4125 18.4125C13.0208 18.8042 12.55 19 12 19C12 19.2833 11.9042 19.5208 11.7125 19.7125C11.5208 19.9042 11.2833 20 11 20C10.7167 20 10.4792 19.9042 10.2875 19.7125C10.0958 19.5208 10 19.2833 10 19H4C4 19.2833 3.90417 19.5208 3.7125 19.7125C3.52083 19.9042 3.28333 20 3 20C2.71667 20 2.47917 19.9042 2.2875 19.7125C2.09583 19.5208 2 19.2833 2 19ZM2 17H12V6H2V17ZM3 16H4.5V7H3V16ZM6.25 16H7.75V7H6.25V16ZM9.5 16H11V7H9.5V16ZM5.5 4H8.5V1.5H5.5V4Z" fill="#1C1B1F"/>
</svg>