<svg xmlns="http://www.w3.org/2000/svg" width="24" height="14" viewBox="0 0 24 14" fill="none">
  <path d="M5 14C3.61667 14 2.4375 13.5125 1.4625 12.5375C0.4875 11.5625 0 10.3833 0 9C0 7.61667 0.4875 6.4375 1.4625 5.4625C2.4375 4.4875 3.61667 4 5 4H16.6L14.6 2H11V0H14.575C14.8417 0 15.0958 0.05 15.3375 0.15C15.5792 0.25 15.7917 0.391667 15.975 0.575L19.45 4.05C20.75 4.15 21.8333 4.675 22.7 5.625C23.5667 6.575 24 7.7 24 9C24 10.3833 23.5125 11.5625 22.5375 12.5375C21.5625 13.5125 20.3833 14 19 14C17.6167 14 16.4375 13.5125 15.4625 12.5375C14.4875 11.5625 14 10.3833 14 9C14 8.7 14.0208 8.40417 14.0625 8.1125C14.1042 7.82083 14.1833 7.53333 14.3 7.25L11.55 10H9.9C9.66667 11.1667 9.09167 12.125 8.175 12.875C7.25833 13.625 6.2 14 5 14ZM19 12C19.8333 12 20.5417 11.7083 21.125 11.125C21.7083 10.5417 22 9.83333 22 9C22 8.16667 21.7083 7.45833 21.125 6.875C20.5417 6.29167 19.8333 6 19 6C18.1667 6 17.4583 6.29167 16.875 6.875C16.2917 7.45833 16 8.16667 16 9C16 9.83333 16.2917 10.5417 16.875 11.125C17.4583 11.7083 18.1667 12 19 12ZM5 12C5.63333 12 6.20417 11.8167 6.7125 11.45C7.22083 11.0833 7.58333 10.6 7.8 10H5V8H7.8C7.58333 7.4 7.22083 6.91667 6.7125 6.55C6.20417 6.18333 5.63333 6 5 6C4.16667 6 3.45833 6.29167 2.875 6.875C2.29167 7.45833 2 8.16667 2 9C2 9.83333 2.29167 10.5417 2.875 11.125C3.45833 11.7083 4.16667 12 5 12ZM9.95 8H10.7L12.7 6H8.95C9.2 6.28333 9.40833 6.59167 9.575 6.925C9.74167 7.25833 9.86667 7.61667 9.95 8Z" fill="#1C1B1F"/>
</svg>