<svg xmlns="http://www.w3.org/2000/svg" width="20" height="18" viewBox="0 0 20 18" fill="none">
  <path d="M18.3294 18L11.4735 11.7C10.9294 12.1 10.3037 12.4167 9.59633 12.65C8.88897 12.8833 8.13628 13 7.33824 13C5.36128 13 3.68812 12.3708 2.31875 11.1125C0.949391 9.85417 0.264709 8.31667 0.264709 6.5C0.264709 4.68333 0.949391 3.14583 2.31875 1.8875C3.68812 0.629167 5.36128 0 7.33824 0C9.3152 0 10.9884 0.629167 12.3577 1.8875C13.7271 3.14583 14.4118 4.68333 14.4118 6.5C14.4118 7.23333 14.2848 7.925 14.0309 8.575C13.777 9.225 13.4324 9.8 12.9971 10.3L19.8529 16.6L18.3294 18ZM7.33824 11C8.69853 11 9.85478 10.5625 10.807 9.6875C11.7592 8.8125 12.2353 7.75 12.2353 6.5C12.2353 5.25 11.7592 4.1875 10.807 3.3125C9.85478 2.4375 8.69853 2 7.33824 2C5.97795 2 4.8217 2.4375 3.86949 3.3125C2.91728 4.1875 2.44118 5.25 2.44118 6.5C2.44118 7.75 2.91728 8.8125 3.86949 9.6875C4.8217 10.5625 5.97795 11 7.33824 11Z" fill="#888888"/>
</svg>